<mxfile host="app.diagrams.net" agent="Mozilla/5.0 (Windows NT 10.0; Win64; x64) AppleWebKit/537.36 (KHTML, like Gecko) Chrome/130.0.0.0 Safari/537.36" version="24.8.4">
  <diagram name="Page-1" id="PAQ5l0Ff9zkYhG-Iv3Be">
    <mxGraphModel dx="1050" dy="522" grid="1" gridSize="10" guides="1" tooltips="1" connect="1" arrows="1" fold="1" page="1" pageScale="1" pageWidth="850" pageHeight="1100" math="0" shadow="0">
      <root>
        <mxCell id="0" />
        <mxCell id="1" parent="0" />
        <mxCell id="BA6ubY1ohdHi3kZDRXHQ-2" value="" style="rounded=0;whiteSpace=wrap;html=1;rotation=90;" vertex="1" parent="1">
          <mxGeometry x="-131.87" y="455.63" width="1185" height="681.25" as="geometry" />
        </mxCell>
        <mxCell id="BA6ubY1ohdHi3kZDRXHQ-3" value="" style="rounded=1;whiteSpace=wrap;html=1;" vertex="1" parent="1">
          <mxGeometry x="130.63" y="220" width="660" height="60" as="geometry" />
        </mxCell>
        <mxCell id="BA6ubY1ohdHi3kZDRXHQ-4" value="Home" style="rounded=0;whiteSpace=wrap;html=1;" vertex="1" parent="1">
          <mxGeometry x="160" y="230" width="100" height="40" as="geometry" />
        </mxCell>
        <mxCell id="BA6ubY1ohdHi3kZDRXHQ-5" value="More About Me" style="rounded=0;whiteSpace=wrap;html=1;" vertex="1" parent="1">
          <mxGeometry x="390" y="230" width="100" height="40" as="geometry" />
        </mxCell>
        <mxCell id="BA6ubY1ohdHi3kZDRXHQ-6" value="Optivia" style="rounded=0;whiteSpace=wrap;html=1;" vertex="1" parent="1">
          <mxGeometry x="620" y="230" width="100" height="40" as="geometry" />
        </mxCell>
        <mxCell id="BA6ubY1ohdHi3kZDRXHQ-7" value="" style="rounded=0;whiteSpace=wrap;html=1;" vertex="1" parent="1">
          <mxGeometry x="305" y="300" width="265" height="250" as="geometry" />
        </mxCell>
        <mxCell id="BA6ubY1ohdHi3kZDRXHQ-8" value="" style="endArrow=none;html=1;rounded=0;entryX=0;entryY=0;entryDx=0;entryDy=0;exitX=1;exitY=1;exitDx=0;exitDy=0;" edge="1" parent="1" source="BA6ubY1ohdHi3kZDRXHQ-7" target="BA6ubY1ohdHi3kZDRXHQ-7">
          <mxGeometry width="50" height="50" relative="1" as="geometry">
            <mxPoint x="580" y="510" as="sourcePoint" />
            <mxPoint x="630" y="460" as="targetPoint" />
          </mxGeometry>
        </mxCell>
        <mxCell id="BA6ubY1ohdHi3kZDRXHQ-9" value="" style="endArrow=none;html=1;rounded=0;entryX=1;entryY=0;entryDx=0;entryDy=0;" edge="1" parent="1" target="BA6ubY1ohdHi3kZDRXHQ-7">
          <mxGeometry width="50" height="50" relative="1" as="geometry">
            <mxPoint x="305" y="550" as="sourcePoint" />
            <mxPoint x="355" y="500" as="targetPoint" />
          </mxGeometry>
        </mxCell>
        <mxCell id="BA6ubY1ohdHi3kZDRXHQ-10" value="...................................................................................................................................................................................................." style="rounded=0;whiteSpace=wrap;html=1;" vertex="1" parent="1">
          <mxGeometry x="130.63" y="570" width="659.37" height="720" as="geometry" />
        </mxCell>
        <mxCell id="BA6ubY1ohdHi3kZDRXHQ-11" value="Copy Right" style="rounded=0;whiteSpace=wrap;html=1;" vertex="1" parent="1">
          <mxGeometry x="580" y="1310" width="120" height="60" as="geometry" />
        </mxCell>
        <mxCell id="BA6ubY1ohdHi3kZDRXHQ-14" value="" style="endArrow=none;html=1;rounded=0;entryX=0;entryY=0;entryDx=0;entryDy=0;exitX=1;exitY=1;exitDx=0;exitDy=0;" edge="1" parent="1">
          <mxGeometry width="50" height="50" relative="1" as="geometry">
            <mxPoint x="390" y="1370" as="sourcePoint" />
            <mxPoint x="330" y="1310" as="targetPoint" />
          </mxGeometry>
        </mxCell>
        <mxCell id="BA6ubY1ohdHi3kZDRXHQ-15" value="" style="endArrow=none;html=1;rounded=0;entryX=0;entryY=0;entryDx=0;entryDy=0;exitX=1;exitY=1;exitDx=0;exitDy=0;" edge="1" parent="1">
          <mxGeometry width="50" height="50" relative="1" as="geometry">
            <mxPoint x="290" y="1370" as="sourcePoint" />
            <mxPoint x="230" y="1310" as="targetPoint" />
          </mxGeometry>
        </mxCell>
        <mxCell id="BA6ubY1ohdHi3kZDRXHQ-16" value="" style="endArrow=none;html=1;rounded=0;entryX=0;entryY=0;entryDx=0;entryDy=0;exitX=1;exitY=1;exitDx=0;exitDy=0;" edge="1" parent="1">
          <mxGeometry width="50" height="50" relative="1" as="geometry">
            <mxPoint x="190.63" y="1370" as="sourcePoint" />
            <mxPoint x="130.63" y="1310" as="targetPoint" />
          </mxGeometry>
        </mxCell>
        <mxCell id="BA6ubY1ohdHi3kZDRXHQ-17" value="" style="endArrow=none;html=1;rounded=0;exitX=0.027;exitY=0.9;exitDx=0;exitDy=0;exitPerimeter=0;" edge="1" parent="1">
          <mxGeometry width="50" height="50" relative="1" as="geometry">
            <mxPoint x="331" y="1370" as="sourcePoint" />
            <mxPoint x="389" y="1316" as="targetPoint" />
          </mxGeometry>
        </mxCell>
        <mxCell id="BA6ubY1ohdHi3kZDRXHQ-20" value="" style="rounded=0;whiteSpace=wrap;html=1;" vertex="1" parent="1">
          <mxGeometry x="330" y="1310" width="60" height="60" as="geometry" />
        </mxCell>
        <mxCell id="BA6ubY1ohdHi3kZDRXHQ-18" value="" style="endArrow=none;html=1;rounded=0;exitX=0.027;exitY=0.9;exitDx=0;exitDy=0;exitPerimeter=0;" edge="1" parent="1">
          <mxGeometry width="50" height="50" relative="1" as="geometry">
            <mxPoint x="131.63" y="1364" as="sourcePoint" />
            <mxPoint x="189.63" y="1310" as="targetPoint" />
          </mxGeometry>
        </mxCell>
        <mxCell id="BA6ubY1ohdHi3kZDRXHQ-19" value="" style="endArrow=none;html=1;rounded=0;exitX=0.027;exitY=0.9;exitDx=0;exitDy=0;exitPerimeter=0;" edge="1" parent="1">
          <mxGeometry width="50" height="50" relative="1" as="geometry">
            <mxPoint x="231" y="1364" as="sourcePoint" />
            <mxPoint x="289" y="1310" as="targetPoint" />
          </mxGeometry>
        </mxCell>
        <mxCell id="BA6ubY1ohdHi3kZDRXHQ-21" value="" style="rounded=0;whiteSpace=wrap;html=1;" vertex="1" parent="1">
          <mxGeometry x="230" y="1310" width="60" height="60" as="geometry" />
        </mxCell>
        <mxCell id="BA6ubY1ohdHi3kZDRXHQ-22" value="" style="rounded=0;whiteSpace=wrap;html=1;" vertex="1" parent="1">
          <mxGeometry x="130.63" y="1310" width="60" height="60" as="geometry" />
        </mxCell>
        <mxCell id="BA6ubY1ohdHi3kZDRXHQ-24" value="" style="endArrow=none;html=1;rounded=0;exitX=0.027;exitY=0.9;exitDx=0;exitDy=0;exitPerimeter=0;" edge="1" parent="1">
          <mxGeometry width="50" height="50" relative="1" as="geometry">
            <mxPoint x="131.63" y="1364" as="sourcePoint" />
            <mxPoint x="189.63" y="1310" as="targetPoint" />
          </mxGeometry>
        </mxCell>
      </root>
    </mxGraphModel>
  </diagram>
</mxfile>
